<svg width="392" height="401" fill="none" xmlns="http://www.w3.org/2000/svg"><path fill-rule="evenodd" clip-rule="evenodd" d="M140.757 90.897c-15.61-14.045-62.83-19.27-93.218 17.561-33.27 40.326-20.677 103.523 30.008 140.078 32.591 23.504 58.886 41.246 82.296 78.122 12.56 19.788 109.119 36.102 162.895-27.425 53.775-63.526 22.832-177.426-45.634-180.211-91.448-3.722-109.585-4.046-136.347-28.125z" fill="#EA6628"/><path d="M57.393 109.241a2.44 2.44 0 100-4.882 2.44 2.44 0 000 4.882zm15.489 0a2.44 2.44 0 10-.001-4.882 2.44 2.44 0 000 4.882zm15.488 0a2.44 2.44 0 100-4.882 2.44 2.44 0 000 4.882zM57.393 90.984a2.44 2.44 0 100-4.882 2.44 2.44 0 000 4.882zm15.489 0a2.44 2.44 0 100-4.882 2.44 2.44 0 000 4.882zm15.488 0a2.44 2.44 0 100-4.882 2.44 2.44 0 000 4.882zM57.393 75.026a2.44 2.44 0 100-4.881 2.44 2.44 0 000 4.88zm15.489 0a2.44 2.44 0 100-4.881 2.44 2.44 0 000 4.88zm15.488 0a2.44 2.44 0 100-4.881 2.44 2.44 0 000 4.88zM57.393 127.98a2.44 2.44 0 100-4.882 2.44 2.44 0 000 4.882zm15.489 0a2.44 2.44 0 10-.001-4.882 2.44 2.44 0 000 4.882zm15.488 0a2.44 2.44 0 100-4.882 2.44 2.44 0 000 4.882zM57.393 56.768a2.44 2.44 0 100-4.88 2.44 2.44 0 000 4.88zm15.489 0a2.44 2.44 0 100-4.88 2.44 2.44 0 000 4.88zm15.488 0a2.44 2.44 0 100-4.88 2.44 2.44 0 000 4.88zm244.071 172.586a2.44 2.44 0 10-.002-4.882 2.44 2.44 0 00.002 4.882zm15.488 0a2.44 2.44 0 100-4.88 2.44 2.44 0 000 4.88zm15.488 0a2.441 2.441 0 100-4.882 2.441 2.441 0 000 4.882zm-30.976-18.258a2.44 2.44 0 100-4.88 2.44 2.44 0 000 4.88zm15.488 0a2.44 2.44 0 100-4.881 2.441 2.441 0 000 4.881zm15.488 0a2.44 2.44 0 10.001-4.88 2.44 2.44 0 00-.001 4.88zm-30.976-15.957a2.44 2.44 0 10-.002-4.882 2.44 2.44 0 00.002 4.882zm15.488 0a2.44 2.44 0 100-4.88 2.44 2.44 0 000 4.88zm15.488 0a2.441 2.441 0 100-4.882 2.441 2.441 0 000 4.882zm-30.976 52.954a2.44 2.44 0 10-.002-4.882 2.44 2.44 0 00.002 4.882zm15.488 0a2.44 2.44 0 100-4.88 2.44 2.44 0 000 4.88zm15.488 0a2.441 2.441 0 100-4.882 2.441 2.441 0 000 4.882zm-30.976-71.212a2.44 2.44 0 10-.001-4.881 2.44 2.44 0 00.001 4.881zm15.488 0a2.44 2.44 0 100-4.88 2.44 2.44 0 000 4.88zm15.488 0a2.44 2.44 0 100-4.882 2.44 2.44 0 000 4.882z" fill="#000"/></svg>