<svg width="179" height="142" fill="none" xmlns="http://www.w3.org/2000/svg"><path d="M23.125 1H5a4 4 0 00-4 4v13.5M155.875 1H174a4 4 0 014 4v13.5M23.125 141H5a4 4 0 01-4-4v-13.5M155.875 141H174a4 4 0 004-4v-13.5" stroke="#E5E5E5"/><path d="M74.688 63.344H72.5v2.187h2.188v-2.187zm10.937 0h-2.188v2.187h2.188v-2.187z" fill="#EA6628"/><path d="M121.874 75.386l-4.273-.61a15.162 15.162 0 00-.719-1.75l2.586-3.448a1.097 1.097 0 00-.102-1.43l-4.641-4.64a1.08 1.08 0 00-.662-.31V52.67a8.753 8.753 0 003.281-6.826 8.656 8.656 0 00-5.002-7.902 1.093 1.093 0 00-1.561.99v6.124l-2.187.73-2.188-.73v-6.125a1.087 1.087 0 00-.51-.92 1.094 1.094 0 00-1.05-.064 8.656 8.656 0 00-5.002 7.897 8.75 8.75 0 003.281 6.826v7.392h-3.281a1.093 1.093 0 00-1.083.939l-.708 4.953 2.166.31.573-4.014h4.666l.573 4.014a1.093 1.093 0 00.777.895c.911.263 1.792.625 2.625 1.08a1.093 1.093 0 001.182-.085l3.239-2.428 3.298 3.299-2.433 3.238a1.096 1.096 0 00-.084 1.182c.454.834.816 1.714 1.079 2.626a1.1 1.1 0 00.895.776l4.014.573v4.666l-4.014.573a1.097 1.097 0 00-.895.777 13.043 13.043 0 01-1.079 2.625 1.094 1.094 0 00.084 1.182l2.428 3.239-3.299 3.299-3.236-2.437a1.093 1.093 0 00-1.183-.085c-.833.454-1.713.817-2.625 1.08a1.092 1.092 0 00-.776.895l-.57 4.016h-4.52v-4.626a12.137 12.137 0 00-.493-3.413 9.964 9.964 0 10-6.993-7.724c-.026-.011-.052-.024-.078-.034l-8.843-3.537v-1.681a12.13 12.13 0 003.805-3.048h2.758a3.28 3.28 0 003.281-3.28v-2.39a3.281 3.281 0 002.188-3.08v-3.28a3.281 3.281 0 00-2.188-3.08V56.78a15.313 15.313 0 00-30.625 0v1.295a3.281 3.281 0 00-2.187 3.08v3.281a3.282 3.282 0 003.28 3.282h2.188c.07 0 .138-.011.207-.016a12.057 12.057 0 006.356 8.532v1.68l-8.843 3.538a11.976 11.976 0 00-7.563 11.171v10.095a1.093 1.093 0 001.093 1.093h41.563a1.093 1.093 0 001.094-1.093v-3.282h5.468a1.094 1.094 0 001.083-.938l.61-4.273a15.29 15.29 0 001.75-.719l3.448 2.586a1.094 1.094 0 001.429-.102l4.641-4.64a1.097 1.097 0 00.102-1.43l-2.586-3.448c.276-.568.516-1.152.719-1.75l4.273-.61a1.094 1.094 0 00.938-1.082v-6.56a1.092 1.092 0 00-.939-1.083zm-12.031-9.393c-.052-.025-.11-.042-.161-.066v-13.52H107.5v8.673l-.011-.08a1.091 1.091 0 00-1.083-.938h-1.093v-7.94a1.09 1.09 0 00-.47-.898 6.562 6.562 0 01-.624-10.278v4.898a1.096 1.096 0 00.748 1.038l3.281 1.093c.225.075.467.075.691 0l3.282-1.093a1.09 1.09 0 00.748-1.038v-4.898a6.56 6.56 0 011.349 8.108 6.555 6.555 0 01-1.974 2.173 1.1 1.1 0 00-.469.895v12.352l-2.032 1.519zM95.469 79.75a7.711 7.711 0 113.645 6.498 11.94 11.94 0 00-2.856-3.147 7.477 7.477 0 01-.79-3.351zM91.094 71h-1.328c.533-1.038.91-2.149 1.121-3.297.069 0 .137.016.207.016h1.094v2.187A1.094 1.094 0 0191.094 71zm-2.188-12.031a3.296 3.296 0 01-2.625-1.313l-1.968-2.625a1.095 1.095 0 00-1.559-.198l-3.67 2.933a5.488 5.488 0 01-3.412 1.203h-6.453v-1.094a9.843 9.843 0 1119.687 0v1.094zm5.47 5.468a1.094 1.094 0 01-1.095 1.094h-2.187v-5.469h2.187a1.094 1.094 0 011.094 1.094v3.281zm-15.313-20.78A13.14 13.14 0 0192.188 56.78v1.094h-1.094a12.031 12.031 0 00-24.063 0h-1.093V56.78a13.139 13.139 0 0113.125-13.125zM64.843 65.53a1.094 1.094 0 01-1.093-1.094v-3.28a1.094 1.094 0 011.094-1.095h2.187v5.47h-2.187zm4.376 0v-4.375h6.453a7.682 7.682 0 004.782-1.678l2.79-2.232 1.287 1.723a5.496 5.496 0 004.375 2.187v4.375A9.785 9.785 0 0187.242 71h-8.18v2.187h6.174a9.833 9.833 0 01-16.017-7.656zm9.844 12.031c1.11-.002 2.214-.16 3.28-.466v1.56a3.281 3.281 0 11-6.562 0v-1.56c1.067.307 2.171.464 3.282.466zm19.687 24.063h-6.562v-12.03H90v12.031H68.125V89.594h-2.187v12.031h-6.563v-9a9.798 9.798 0 016.189-9.141l8.272-3.309a5.434 5.434 0 0010.454 0l8.272 3.309a9.798 9.798 0 016.188 9.14v9.001z" fill="#EA6628"/><path d="M104.219 64.438h-2.188v2.187h2.188v-2.188zm0 28.437h-2.188v2.188h2.188v-2.188zm8.959-4.617l-1.547 1.546 1.547 1.547 1.547-1.547-1.547-1.546zm5.26-9.602h-2.188v2.188h2.188v-2.188zm-5.259-10.506l-1.547 1.546 1.547 1.547 1.547-1.547-1.547-1.546z" fill="#EA6628"/></svg>