<svg width="179" height="142" fill="none" xmlns="http://www.w3.org/2000/svg"><path d="M23.125 1H5a4 4 0 00-4 4v13.5M155.875 1H174a4 4 0 014 4v13.5M23.125 141H5a4 4 0 01-4-4v-13.5M155.875 141H174a4 4 0 004-4v-13.5" stroke="#E5E5E5"/><g clip-path="url(#clip0_1907_6067)" fill="#EA6628"><path d="M126.871 51.6a3.502 3.502 0 00-4.292-2.473 3.5 3.5 0 00-2.123 1.632l-.583 1.015a1.167 1.167 0 00-1.587.42l-2.962 5.05-1.015-.583a1.169 1.169 0 00-1.599.432 1.167 1.167 0 00.432 1.586l1.015.584-9.915 17.182-2.45 6.544-1.166 2.18a3.5 3.5 0 00.187 3.78l-2.625 3.22-.734-1.843a2.332 2.332 0 00-4.165-.327l-.42.712-.396-4.666a2.334 2.334 0 00-4.538-.548l-2.87 8.608c-.2.609.128 1.265.735 1.47.114.053.237.085.362.093.501.002.948-.318 1.108-.793l2.858-8.608.408 4.735a2.333 2.333 0 004.328 1.004l.431-.712.724 1.831a2.332 2.332 0 003.989.595l2.718-3.44c.301.078.611.117.921.116a3.5 3.5 0 003.045-1.727l1.166-1.948 4.445-5.4 10.019-17.393 1.015.584c.271.155.468.41.548.712.081.299.039.618-.116.886l-4.666 8.084a1.163 1.163 0 00.373 1.644 1.167 1.167 0 001.598-.431l4.666-8.084a3.5 3.5 0 00-1.283-4.783l-1.015-.583 2.916-5.05a1.167 1.167 0 00-.419-1.587l.583-1.015a3.496 3.496 0 00.349-2.706zm-4.397.325c.154-.27.411-.467.712-.547a1.22 1.22 0 01.886.116c.271.155.468.41.549.712.074.3.032.616-.117.886l-.583 1.015-2.03-1.167.583-1.015zm-15.899 32.569l-.583-.339-1.727-1.003 1.657-4.433 3.674 2.123-3.021 3.652zm-3.499 3.37a1.165 1.165 0 01-.35-1.528l.583-1.014 2.03 1.166-.584 1.003a1.166 1.166 0 01-1.679.373zm7.85-8.934l-4.036-2.333 9.332-16.168 4.036 2.333-9.332 16.168zm10.498-18.186l-4.036-2.333 2.333-4.036 4.036 2.333-2.333 4.036zM75.407 87.281l-4.13 4.118-2.472-2.473a1.167 1.167 0 10-1.645 1.656l2.473 2.473a2.332 2.332 0 001.645.677 2.33 2.33 0 001.656-.677l4.118-4.129a1.166 1.166 0 00-1.645-1.645z"/><path d="M61.666 90.419c0 5.476 4.439 9.915 9.915 9.915 5.475 0 9.915-4.439 9.915-9.915a1.167 1.167 0 00-2.333 0 7.582 7.582 0 11-7.582-7.582 7.516 7.516 0 014.549 1.516 1.166 1.166 0 101.4-1.866 9.916 9.916 0 00-15.864 7.932zm37.327-46.076a1.166 1.166 0 100-2.333H68.665c-.645 0-1.167.523-1.167 1.167v4.666c0 .645.522 1.166 1.166 1.166h30.329a1.166 1.166 0 100-2.333H69.83v-2.333h29.162zm-26.829 6.999a1.166 1.166 0 000 2.333h23.33a1.166 1.166 0 100-2.333h-23.33zm30.328 8.166H76.83a1.167 1.167 0 000 2.332h25.662a1.167 1.167 0 100-2.332zm-11.664 8.165c0-.644-.523-1.167-1.167-1.167h-23.33a1.167 1.167 0 000 2.333h23.33c.644 0 1.167-.521 1.167-1.166zm11.664-1.167h-8.165a1.167 1.167 0 000 2.333h8.165a1.167 1.167 0 100-2.333zm-24.496 8.166a1.166 1.166 0 100-2.333H66.332a1.167 1.167 0 000 2.333h11.664zm4.666 0h8.166a1.166 1.166 0 100-2.333h-8.166a1.167 1.167 0 000 2.333z"/><path d="M109.491 88.67c-.644 0-1.166.522-1.166 1.166V101.5c0 .645-.523 1.167-1.167 1.167H60.499a1.166 1.166 0 01-1.166-1.167V38.511c0-.644.522-1.166 1.166-1.166h46.659c.644 0 1.167.522 1.167 1.166v21.907a1.166 1.166 0 102.333 0V38.51a3.5 3.5 0 00-3.5-3.5H60.499A3.5 3.5 0 0057 38.51v62.99a3.5 3.5 0 003.5 3.5h46.658a3.5 3.5 0 003.5-3.5V89.836c0-.644-.523-1.167-1.167-1.167z"/></g><defs><clipPath id="clip0_1907_6067"><path fill="#fff" transform="translate(57 35)" d="M0 0h70v70H0z"/></clipPath></defs></svg>