<svg width="179" height="142" fill="none" xmlns="http://www.w3.org/2000/svg"><path d="M23.125 1H5a4 4 0 00-4 4v13.5M155.875 1H174a4 4 0 014 4v13.5M23.125 141H5a4 4 0 01-4-4v-13.5M155.875 141H174a4 4 0 004-4v-13.5" stroke="#E5E5E5"/><g clip-path="url(#clip0_1907_6065)" fill="#EA6628"><path d="M82.042 56.938l-1.15.416a5.417 5.417 0 00-3.456 4.053l-.39 2.045a3.435 3.435 0 00.727 2.846 3.439 3.439 0 002.66 1.253H90.4c1.025 0 1.99-.451 2.647-1.237a3.44 3.44 0 00.75-2.82l-.364-2.034a5.406 5.406 0 00-3.468-4.117l-1.219-.442v-1.797c0-.05-.005-.1-.012-.148a4.888 4.888 0 001.399-3.404v-2.677a4.745 4.745 0 00-4.74-4.74 4.746 4.746 0 00-4.74 4.74v2.76c0 1.3.535 2.485 1.396 3.346a.978.978 0 00-.008.123v1.834zm9.43 4.873l.364 2.034a1.455 1.455 0 01-1.435 1.713h-9.968c-.437 0-.846-.193-1.124-.529a1.45 1.45 0 01-.307-1.202l.39-2.045a3.414 3.414 0 012.178-2.554l.754-.273.058.056a4.567 4.567 0 003.012 1.126 4.571 4.571 0 003.011-1.123.893.893 0 00.087-.087l.794.288a3.407 3.407 0 012.186 2.596zm-8.826-12.936a2.75 2.75 0 012.748-2.748 2.75 2.75 0 012.658 2.064c-.128.063-.26.122-.394.175-1.225.49-2.214.426-2.497.228a.996.996 0 10-1.144 1.63c.487.342 1.147.513 1.9.513.685 0 1.447-.143 2.224-.424v1.239a2.88 2.88 0 01-.864 2.045 2.786 2.786 0 01-.922.604 2.57 2.57 0 01-1.016.181 2.761 2.761 0 01-2.693-2.747v-2.76zm2.655 7.5h.091c.468 0 .925-.07 1.363-.205v1.594a2.6 2.6 0 01-2.72-.001v-1.59c.402.122.827.193 1.266.201zm-15.579 28.23h31.022a.996.996 0 000-1.993H69.722a.996.996 0 100 1.993zm0 5.371h31.022a.996.996 0 000-1.993H69.722a.996.996 0 100 1.993zm0 5.37h31.022a.996.996 0 100-1.992H69.722a.996.996 0 100 1.992zm0 5.372h31.022a.996.996 0 000-1.993H69.722a.996.996 0 100 1.993zm-.996-27.851c0 .55.446.995.996.995h31.022a.996.996 0 100-1.992H69.722a.996.996 0 00-.996.996zm.996 6.367h31.022a.996.996 0 100-1.992H69.722a.996.996 0 100 1.992zm-3.678 5.374a1 1 0 100-2 1 1 0 000 2zm0-10.742a1 1 0 100-2 1 1 0 000 2zm0 5.371a1 1 0 100-2 1 1 0 000 2zm0 10.743a1 1 0 100-2 1 1 0 000 2zm0 5.37a1 1 0 100-2 1 1 0 000 2zm0 5.371a1 1 0 100-2 1 1 0 000 2z"/><path d="M122.498 53.688c-.402-.509-.782-.99-.966-1.432-.198-.478-.276-1.11-.359-1.779-.145-1.171-.309-2.5-1.235-3.426-.927-.927-2.255-1.09-3.427-1.236-.669-.082-1.301-.16-1.779-.358-.443-.184-.923-.564-1.432-.966-.7-.553-1.47-1.16-2.38-1.436v-.301A4.76 4.76 0 00106.165 38H64.669a4.76 4.76 0 00-4.754 4.754v3.845a.996.996 0 101.992 0v-3.845a2.765 2.765 0 012.762-2.762h41.496a2.765 2.765 0 012.763 2.762v.302c-.91.275-1.68.882-2.38 1.436-.509.401-.989.781-1.432.965-.478.198-1.11.276-1.779.359-1.172.144-2.5.308-3.427 1.235-.926.927-1.09 2.255-1.236 3.427-.082.668-.16 1.3-.358 1.778-.184.443-.564.923-.966 1.432-.744.942-1.587 2.01-1.587 3.376s.843 2.434 1.587 3.376c.402.508.782.989.966 1.432.198.478.276 1.11.358 1.778.145 1.172.31 2.5 1.236 3.426.927.927 2.255 1.091 3.427 1.236.349.043.688.085 1 .144v15.056c0 .59.33 1.117.86 1.376a1.52 1.52 0 001.613-.171l2.118-1.658v18.187a2.766 2.766 0 01-2.763 2.762H64.669a2.765 2.765 0 01-2.762-2.762v-50.26a.996.996 0 10-1.992 0v50.26A4.76 4.76 0 0064.669 106h41.496a4.76 4.76 0 004.755-4.754V83.059l2.117 1.657a1.525 1.525 0 001.614.172 1.52 1.52 0 00.86-1.376V72.396a.995.995 0 10-1.992 0v10.168l-2.648-2.073a1.53 1.53 0 00-1.891-.004l-2.651 2.076V69.464l.219.172c.942.744 2.009 1.587 3.376 1.587 1.366 0 2.434-.843 3.376-1.587.509-.402.989-.782 1.432-.965.478-.198 1.11-.277 1.779-.36 1.172-.144 2.5-.308 3.427-1.235.926-.926 1.09-2.254 1.235-3.426.083-.669.161-1.3.359-1.779.184-.442.564-.923.966-1.432.744-.941 1.587-2.009 1.587-3.375 0-1.367-.843-2.434-1.587-3.376zm-1.563 5.516c-.469.593-.953 1.206-1.243 1.904-.302.728-.4 1.526-.496 2.297-.115.936-.225 1.82-.667 2.262-.442.443-1.326.552-2.262.668-.772.095-1.57.193-2.298.495-.698.29-1.311.774-1.904 1.243-.754.595-1.466 1.158-2.141 1.158-.674 0-1.387-.563-2.141-1.158-.593-.469-1.206-.953-1.904-1.243a6.127 6.127 0 00-.251-.094c-.658-.23-1.363-.317-2.047-.401-.935-.116-1.819-.225-2.262-.668-.442-.442-.551-1.326-.667-2.261-.095-.772-.194-1.57-.496-2.298-.29-.698-.774-1.31-1.242-1.904-.596-.754-1.159-1.466-1.159-2.14 0-.675.563-1.387 1.159-2.14.468-.594.953-1.207 1.242-1.905.302-.728.401-1.526.496-2.297.116-.936.225-1.82.667-2.262.443-.442 1.327-.552 2.263-.667.771-.096 1.569-.194 2.297-.496.698-.29 1.311-.774 1.904-1.242.753-.595 1.464-1.157 2.137-1.159h.008c.673.002 1.384.564 2.137 1.159.593.468 1.206.953 1.904 1.242.728.302 1.526.4 2.298.496.936.115 1.82.225 2.262.667.442.442.552 1.326.667 2.262.096.771.194 1.569.496 2.297.29.698.774 1.311 1.243 1.904.595.754 1.158 1.466 1.158 2.14 0 .675-.563 1.387-1.158 2.141z"/><path d="M116.319 53.898l-3.39-.959-1.96-2.927a1.256 1.256 0 00-2.091 0l-1.959 2.927-3.39.96a1.256 1.256 0 00-.646 1.988l2.178 2.768-.135 3.52a1.258 1.258 0 001.691 1.229l3.307-1.216 3.306 1.216a1.257 1.257 0 001.692-1.229l-.136-3.52 2.179-2.768a1.256 1.256 0 00-.646-1.989zm-3.265 3.738a1.25 1.25 0 00-.268.826l.103 2.694-2.531-.931a1.26 1.26 0 00-.869 0l-2.53.93.103-2.694a1.26 1.26 0 00-.269-.826l-1.667-2.118 2.595-.734c.287-.082.537-.263.703-.511l1.5-2.24 1.5 2.24c.166.248.415.429.703.51l2.594.735-1.667 2.119z"/></g><defs><clipPath id="clip0_1907_6065"><path fill="#fff" transform="translate(58 38)" d="M0 0h68v68H0z"/></clipPath></defs></svg>