<svg width="179" height="142" fill="none" xmlns="http://www.w3.org/2000/svg"><path d="M23.125 1H5a4 4 0 00-4 4v13.5M155.875 1H174a4 4 0 014 4v13.5M23.125 141H5a4 4 0 01-4-4v-13.5M155.875 141H174a4 4 0 004-4v-13.5" stroke="#E5E5E5"/><g clip-path="url(#clip0_1907_6068)" fill="#EA6628"><path d="M103.165 89.775a7.338 7.338 0 00-.63.16 8.812 8.812 0 00-5.136-3.305l1.373-2.656 2.793-2.791a5.491 5.491 0 000-7.755l-2.984-2.985 15.18-15.189.04-.035.036-.04 5.901-5.904v-.001l2.768-2.77c1.943-1.938 1.944-5.1.002-7.047A4.947 4.947 0 00118.984 38h-.003a4.938 4.938 0 00-3.518 1.457l-2.769 2.77-5.902 5.905-.039.035-.036.04-3.347 3.349a1.329 1.329 0 101.879 1.878l2.445-2.447 3.288 3.29-14.279 14.287-3.288-3.29 3.405-3.407a1.328 1.328 0 00-1.878-1.878l-3.405 3.406-2.983-2.985a5.442 5.442 0 00-3.876-1.6 5.442 5.442 0 00-3.878 1.6l-2.789 2.794-5.378 2.787-.017.01-5.18 2.684a1.352 1.352 0 00-.068.035l-8.359 4.331c-1.794.93-2.767 2.027-2.973 3.357-.2 1.287.385 2.626 1.738 3.98l3.678 3.681.043.043 8.187 8.194 8.166 8.168c.02.022.042.043.063.063l3.683 3.684c1.181 1.182 2.35 1.778 3.484 1.778.166 0 .33-.013.494-.038 1.33-.207 2.428-1.18 3.357-2.976l.603-1.166c.335.304.695.584 1.08.838a8.778 8.778 0 006.645 1.275 8.85 8.85 0 003.152-1.32 7.15 7.15 0 005.649 1.211 7.125 7.125 0 004.542-3.081 7.123 7.123 0 001.032-5.388c-.795-3.87-4.592-6.374-8.468-5.58zm15.817-49.119h.002c.624 0 1.208.241 1.644.677.907.91.908 2.387.001 3.292l-1.83 1.831-3.288-3.29 1.832-1.833a2.3 2.3 0 011.639-.677zm-9.41 8.453l4.061-4.064 3.288 3.29-4.061 4.064-3.288-3.29zM89.124 89.12L70.239 70.226l2.75-1.426 18.543 18.552a8.795 8.795 0 00-2.408 1.769zm-10.57-23.205l17.507 17.517-1.574 3.046-.065.008-18.958-18.97 3.09-1.601zm4.127-3.628c.53-.53 1.239-.822 1.997-.822s1.468.292 1.998.822l13.01 13.018a2.833 2.833 0 01.001 3.999l-2 1.997L80.685 64.29l1.997-2zm3.89 39.478c-.484.935-.996 1.508-1.405 1.571-.385.06-1.001-.302-1.692-.992l-3.029-3.03 2.9-5.6a1.328 1.328 0 10-2.358-1.222l-2.512 4.85-5.972-5.972 4.204-4.219a1.328 1.328 0 00-1.881-1.875l-4.2 4.215-5.975-5.98 4.849-2.514a1.328 1.328 0 10-1.223-2.358l-5.595 2.901-3.028-3.03c-.69-.69-1.052-1.308-.992-1.694.064-.41.636-.922 1.57-1.406l7.533-3.903 19.804 19.815a8.812 8.812 0 00-.754 5.731c.181.88.49 1.714.91 2.48l-1.155 2.232zm21.811-2.483a4.48 4.48 0 01-2.858 1.939 4.505 4.505 0 01-4.127-1.251 1.328 1.328 0 00-1.827-.059 6.146 6.146 0 01-2.848 1.42 6.137 6.137 0 01-4.647-.892 6.156 6.156 0 01-2.659-3.921c-.687-3.346 1.473-6.626 4.814-7.313a6.17 6.17 0 016.632 3.013 1.328 1.328 0 001.746.535 4.583 4.583 0 011.095-.378 4.522 4.522 0 015.329 3.515 4.48 4.48 0 01-.65 3.392zm11.001-5.244a4.625 4.625 0 00-4.62 4.619 4.627 4.627 0 004.62 4.622A4.625 4.625 0 00124 98.657a4.623 4.623 0 00-4.617-4.619zm0 6.585a1.965 1.965 0 010-3.928 1.964 1.964 0 010 3.928z"/><path d="M119.056 79.913a5.802 5.802 0 00-5.795-5.797c-3.193 0-5.79 2.6-5.79 5.797 0 3.196 2.598 5.797 5.79 5.797a5.802 5.802 0 005.795-5.797zm-5.795 3.14a3.14 3.14 0 010-6.28 3.143 3.143 0 013.139 3.14 3.143 3.143 0 01-3.139 3.14zM100.094 58.04a1.328 1.328 0 10-.937-2.268l-.004.004a1.326 1.326 0 00.941 2.264z"/></g><defs><clipPath id="clip0_1907_6068"><path fill="#fff" transform="translate(56 38)" d="M0 0h68v68H0z"/></clipPath></defs></svg>