<svg width="22" height="22" fill="none" xmlns="http://www.w3.org/2000/svg"><path d="M18.219 2.75h-3.782v-.688A2.065 2.065 0 0012.376 0h-2.75a2.065 2.065 0 00-2.063 2.063v.687h-3.78a1.72 1.72 0 00-1.72 1.719v2.406c0 .38.308.688.688.688h.376l.594 12.473A2.06 2.06 0 005.78 22h10.44a2.06 2.06 0 002.06-1.964l.594-12.474h.376c.38 0 .688-.307.688-.687V4.469a1.72 1.72 0 00-1.72-1.719zm-9.282-.688c0-.379.309-.687.688-.687h2.75c.38 0 .688.308.688.688v.687H8.936v-.688zm-5.5 2.407c0-.19.155-.344.344-.344H18.22c.19 0 .343.154.343.344v1.718H3.438V4.47zm13.47 15.501a.687.687 0 01-.687.655H5.78a.687.687 0 01-.687-.655l-.59-12.407h12.995l-.591 12.407z" fill="#E33E54"/><path d="M11 19.25c.38 0 .688-.308.688-.688V9.626a.688.688 0 00-1.376 0v8.938c0 .38.308.687.688.687zm3.438 0c.38 0 .687-.308.687-.688V9.626a.688.688 0 00-1.375 0v8.938c0 .38.308.687.688.687zm-6.875 0c.38 0 .687-.308.687-.688V9.626a.688.688 0 00-1.375 0v8.938c0 .38.308.687.688.687z" fill="#E33E54"/></svg>