<svg width="26" height="26" fill="none" xmlns="http://www.w3.org/2000/svg"><path d="M1.774 21.863H5.91v3.546a.57.57 0 00.591.591h3.084c.16 0 .298-.056.415-.167a.557.557 0 00.176-.424v-3.546H19.5a.574.574 0 00.425-.166.574.574 0 00.166-.425V18.91a.573.573 0 00-.166-.424.574.574 0 00-.425-.167h-9.326v-2.18h6.279c2.462 0 4.471-.75 6.029-2.252 1.557-1.5 2.336-3.44 2.336-5.817 0-2.375-.78-4.314-2.336-5.816C20.925.752 18.916 0 16.453 0H6.502a.577.577 0 00-.425.166.577.577 0 00-.166.425v11.615H1.774a.584.584 0 00-.591.59v2.752c0 .172.055.314.166.425a.574.574 0 00.425.166H5.91v2.179H1.774a.575.575 0 00-.425.166.574.574 0 00-.166.425v2.363c0 .173.055.314.166.425a.574.574 0 00.425.166zm8.401-17.93h5.91c1.304 0 2.357.382 3.157 1.145.8.764 1.2 1.761 1.2 2.992 0 1.23-.4 2.229-1.2 2.991-.8.764-1.853 1.146-3.158 1.146h-5.909V3.934z" fill="#000"/></svg>