<svg width="16" height="16" fill="none" xmlns="http://www.w3.org/2000/svg"><g clip-path="url(#clip0_159_44)"><path d="M1.092 13.454h2.546v2.182A.352.352 0 004 16h1.9a.359.359 0 00.364-.364v-2.182H12a.353.353 0 00.262-.102.354.354 0 00.102-.261v-1.455a.353.353 0 00-.102-.26.353.353 0 00-.262-.103H6.262V9.932h3.864c1.515 0 2.752-.462 3.71-1.387.959-.923 1.438-2.117 1.438-3.58 0-1.46-.48-2.654-1.438-3.579C12.878.463 11.641 0 10.126 0H4.001a.355.355 0 00-.261.102.355.355 0 00-.102.262V7.51H1.092a.36.36 0 00-.364.364v1.693a.353.353 0 00.364.364h2.546v1.34H1.092a.354.354 0 00-.261.103.353.353 0 00-.102.261v1.455a.35.35 0 00.102.261.353.353 0 00.261.102zm5.17-11.033H9.9c.803 0 1.45.234 1.943.704.492.47.739 1.084.739 1.841 0 .758-.247 1.372-.739 1.84-.493.47-1.14.706-1.943.706H6.262V2.42z" fill="#B1B1B1"/></g><defs><clipPath id="clip0_159_44"><path fill="#fff" d="M0 0h16v16H0z"/></clipPath></defs></svg>