<svg width="13" height="13" fill="none" xmlns="http://www.w3.org/2000/svg"><path d="M.886 10.932h2.069v1.773A.286.286 0 003.25 13h1.542a.292.292 0 00.295-.295v-1.773H9.75a.287.287 0 00.212-.083.287.287 0 00.084-.213V9.454a.287.287 0 00-.084-.212.287.287 0 00-.212-.083H5.087v-1.09h3.14c1.23 0 2.235-.375 3.014-1.126.779-.75 1.168-1.72 1.168-2.908s-.39-2.157-1.168-2.909C10.462.376 9.457 0 8.226 0H3.25a.288.288 0 00-.212.083.289.289 0 00-.084.212v5.808H.886a.292.292 0 00-.296.295v1.376a.287.287 0 00.296.295h2.069v1.09H.886a.287.287 0 00-.212.083.287.287 0 00-.083.212v1.182c0 .087.027.157.083.213a.287.287 0 00.212.083zm4.201-8.965h2.955c.652 0 1.178.19 1.579.572.4.382.6.88.6 1.496 0 .615-.2 1.114-.6 1.496-.4.381-.927.572-1.58.572H5.088V1.967z" fill="#B1B1B1"/></svg>