<svg width="30" height="30" fill="none" xmlns="http://www.w3.org/2000/svg"><path fill-rule="evenodd" clip-rule="evenodd" d="M15 28.5c7.456 0 13.5-6.044 13.5-13.5S22.456 1.5 15 1.5 1.5 7.544 1.5 15 7.544 28.5 15 28.5zm0 1.5c8.284 0 15-6.716 15-15 0-8.284-6.716-15-15-15C6.716 0 0 6.716 0 15c0 8.284 6.716 15 15 15z" fill="#D5D5D5"/><path fill-rule="evenodd" clip-rule="evenodd" d="M21 15a.75.75 0 01-.75.75H9.75a.75.75 0 010-1.5h10.5A.75.75 0 0121 15z" fill="#D5D5D5"/><path fill-rule="evenodd" clip-rule="evenodd" d="M15 21a.75.75 0 01-.75-.75V9.75a.75.75 0 011.5 0v10.5A.75.75 0 0115 21z" fill="#D5D5D5"/></svg>