<svg width="10" height="10" fill="none" xmlns="http://www.w3.org/2000/svg"><g clip-path="url(#clip0_1903_1600)"><path d="M.682 8.409h1.59v1.364A.22.22 0 002.5 10h1.186a.224.224 0 00.227-.227V8.409H7.5a.22.22 0 00.163-.064.22.22 0 00.064-.163v-.91a.22.22 0 00-.064-.163.221.221 0 00-.163-.064H3.913v-.838h2.415c.947 0 1.72-.288 2.319-.866.599-.577.898-1.323.898-2.237 0-.914-.3-1.66-.898-2.238C8.048.29 7.275 0 6.328 0H2.5a.222.222 0 00-.163.064.222.222 0 00-.064.163v4.468H.682a.225.225 0 00-.227.227V5.98c0 .066.02.12.064.163a.22.22 0 00.163.064h1.59v.838H.683a.221.221 0 00-.163.064.22.22 0 00-.064.164v.909c0 .066.02.12.064.163a.22.22 0 00.163.064zm3.231-6.896h2.273c.502 0 .907.147 1.215.44.307.294.461.677.461 1.15 0 .474-.154.858-.461 1.151-.308.294-.713.44-1.215.44H3.913v-3.18z" fill="#B1B1B1"/></g><defs><clipPath id="clip0_1903_1600"><path fill="#fff" d="M0 0h10v10H0z"/></clipPath></defs></svg>