<svg width="35" height="37" fill="none" xmlns="http://www.w3.org/2000/svg"><path d="M1.523 31.113H7.41v5.046c0 .246.078.447.236.604a.82.82 0 00.605.237h4.388a.83.83 0 00.591-.237.793.793 0 00.25-.604v-5.046h13.27a.818.818 0 00.605-.236.817.817 0 00.236-.605V26.91a.816.816 0 00-.236-.604.818.818 0 00-.605-.237H13.48v-3.101h8.934c3.504 0 6.363-1.068 8.58-3.206 2.216-2.136 3.324-4.895 3.324-8.278 0-3.38-1.108-6.14-3.324-8.277C28.778 1.07 25.918 0 22.414 0H8.25a.82.82 0 00-.604.236.821.821 0 00-.237.605v16.53H1.523a.797.797 0 00-.604.249.831.831 0 00-.237.59v3.916c0 .245.079.447.237.604a.816.816 0 00.604.237H7.41v3.1H1.523a.818.818 0 00-.604.238.818.818 0 00-.237.604v3.363c0 .246.079.447.237.605a.817.817 0 00.604.236zM13.48 5.598h8.41c1.856 0 3.354.543 4.493 1.629 1.138 1.086 1.708 2.506 1.708 4.257 0 1.752-.57 3.172-1.708 4.257-1.14 1.087-2.637 1.63-4.494 1.63H13.48V5.598z" fill="#000"/></svg>