<svg width="14" height="14" fill="none" xmlns="http://www.w3.org/2000/svg"><path d="M.955 11.773h2.227v1.909A.308.308 0 003.5 14h1.66a.314.314 0 00.319-.318v-1.91H10.5a.31.31 0 00.229-.089.31.31 0 00.09-.229v-1.272a.309.309 0 00-.09-.229.31.31 0 00-.229-.09H5.48V8.69h3.38c1.326 0 2.408-.404 3.247-1.213.838-.808 1.258-1.852 1.258-3.132 0-1.279-.42-2.323-1.258-3.132C11.267.405 10.185 0 8.859 0H3.5a.31.31 0 00-.229.09.31.31 0 00-.09.228v6.255H.956a.315.315 0 00-.318.318v1.481c0 .093.03.169.089.229.06.06.136.09.229.09h2.227v1.172H.955a.31.31 0 00-.229.09.31.31 0 00-.09.229v1.272c0 .093.03.17.09.23.06.059.136.089.229.089zm4.524-9.655H8.66c.702 0 1.269.206 1.7.617.43.41.646.948.646 1.61 0 .663-.216 1.2-.646 1.611-.431.411-.998.617-1.7.617H5.479V2.118z" fill="#000"/></svg>