<svg width="19" height="19" fill="none" xmlns="http://www.w3.org/2000/svg"><g clip-path="url(#clip0_51_31)"><path d="M1.296 15.977h3.022v2.591A.418.418 0 004.75 19h2.254a.426.426 0 00.432-.432v-2.591h6.814a.42.42 0 00.31-.121.42.42 0 00.122-.31v-1.728a.42.42 0 00-.121-.31.42.42 0 00-.31-.122H7.434v-1.592h4.588c1.8 0 3.268-.549 4.406-1.646s1.707-2.514 1.707-4.251c0-1.736-.569-3.153-1.707-4.25C15.291.548 13.823 0 12.023 0H4.75c-.126 0-.23.04-.31.121a.422.422 0 00-.122.31V8.92H1.296a.427.427 0 00-.432.432v2.01c0 .126.04.23.121.31a.42.42 0 00.31.122h3.023v1.592H1.296a.42.42 0 00-.31.122.42.42 0 00-.122.31v1.727c0 .126.04.23.121.31a.42.42 0 00.31.122zm6.14-13.102h4.318c.953 0 1.722.278 2.307.836.585.558.877 1.287.877 2.186 0 .9-.292 1.629-.877 2.186-.585.558-1.354.837-2.307.837H7.435V2.875z" fill="#B1B1B1"/></g><defs><clipPath id="clip0_51_31"><path fill="#fff" d="M0 0h19v19H0z"/></clipPath></defs></svg>