<svg width="12" height="12" fill="none" xmlns="http://www.w3.org/2000/svg"><path d="M.818 10.09h1.91v1.637A.264.264 0 003 12h1.423a.269.269 0 00.273-.273v-1.636H9c.08 0 .145-.026.196-.077a.265.265 0 00.077-.196v-1.09a.265.265 0 00-.077-.197A.265.265 0 009 8.454H4.696V7.45h2.898c1.136 0 2.063-.347 2.782-1.04.72-.693 1.079-1.588 1.079-2.685 0-1.096-.36-1.99-1.079-2.684C9.658.347 8.73 0 7.594 0H3a.266.266 0 00-.196.077.266.266 0 00-.077.196v5.36H.818a.27.27 0 00-.273.273v1.27c0 .08.026.145.077.196a.265.265 0 00.196.077h1.91v1.005H.817a.265.265 0 00-.196.077.265.265 0 00-.076.196v1.091c0 .08.025.145.076.196a.265.265 0 00.196.077zm3.878-8.274h2.727c.602 0 1.088.176 1.458.528.369.352.554.813.554 1.38 0 .569-.185 1.03-.554 1.381-.37.353-.856.529-1.458.529H4.696V1.816z" fill="#000"/></svg>